<svg width="380" height="303" viewBox="0 0 380 303" fill="none" xmlns="http://www.w3.org/2000/svg">
<path d="M117.306 150.971V154.443H127.523C127.384 155.901 127.139 157.221 126.822 158.512L115.589 159.108L116.186 162.778L125.417 161.984C123.557 165.325 120.434 168.137 115.41 170.617L117.94 173.924C129.526 168.204 132.122 160.332 132.122 150.971H117.306ZM138.092 148.063V159.735H132.051V163.274H138.092V178.522H142.723V148.063H138.092Z" fill="#51DFCA"/>
<path d="M159.923 154.38H163.541V167.805C162.31 167.838 161.118 167.905 159.923 167.905V154.38ZM167.998 154.38H170.773V150.871H152.62V154.38H155.43V168.002C154.167 168.002 152.936 168.002 151.781 168.002L152.271 171.575C158.062 171.541 165.504 171.411 172.316 170.318L172.035 167.178C170.701 167.342 169.367 167.477 167.998 167.54V154.38ZM174.106 148.092V178.556H178.776V148.092H174.106Z" fill="#51DFCA"/>
<path d="M207.068 151.27H199.836V148.029H195.169V151.27H188.004V154.674H207.032L207.068 151.27ZM194.009 161.622C194.009 159.966 195.45 159.075 197.52 159.075C199.555 159.075 201.031 159.966 201.031 161.622C201.031 163.307 199.555 164.202 197.52 164.202C195.45 164.202 194.009 163.307 194.009 161.622ZM205.453 161.622C205.453 158.18 202.151 155.767 197.52 155.767C192.885 155.767 189.584 158.18 189.584 161.622C189.584 165.127 192.885 167.506 197.52 167.506C202.151 167.506 205.453 165.127 205.453 161.622ZM197.239 169.162H192.604V177.993H214.616V174.521H197.239V169.162ZM213.456 157.356V148.063H208.825V170.848H213.456V160.958H217.739V157.356H213.456Z" fill="#51DFCA"/>
<path d="M243.505 162.711C238.276 161.126 236.063 157.453 236.063 153.817V153.783H242.381V150.311H225.004V153.783H231.325V153.817C231.325 157.654 229.041 161.689 223.706 163.341L226.057 166.779C229.813 165.59 232.343 163.177 233.78 160.197C235.185 162.845 237.572 164.963 241.011 166.052L243.505 162.711ZM233.396 168.237H228.76V177.993H250.773V174.521H233.396V168.237ZM249.613 156.923V148.063H244.982V170.385H249.613V160.496H253.896V156.923H249.613Z" fill="#51DFCA"/>
<path d="M235.656 136.62H274.423" stroke="#51DFCA" stroke-width="4.99312"/>
<path d="M87.0874 136.62H125.855" stroke="#51DFCA" stroke-width="4.99312"/>
<mask id="mask0_281_311" style="mask-type:luminance" maskUnits="userSpaceOnUse" x="151" y="130" width="59" height="8">
<path d="M151.188 130.205H209.76V137.731H151.188V130.205Z" fill="white"/>
</mask>
<g mask="url(#mask0_281_311)">
<path d="M209.558 137.731H151.188C151.188 134.017 154.375 131.007 158.306 131.007H202.441C206.372 131.007 209.558 134.017 209.558 137.731Z" fill="#51DFCA"/>
</g>
<mask id="mask1_281_311" style="mask-type:luminance" maskUnits="userSpaceOnUse" x="162" y="30" width="11" height="33">
<path d="M162.133 30.0511H172.267V62.424H162.133V30.0511Z" fill="white"/>
</mask>
<g mask="url(#mask1_281_311)">
<path d="M166.852 61.5477C166.658 61.5477 166.468 61.529 166.278 61.4768C165.134 61.1748 164.477 60.0635 164.793 58.9895C164.829 58.8664 164.924 58.6613 164.983 58.5457C166.864 54.962 168.292 50.129 166.674 47.3433C166.373 46.8286 166.131 46.6459 165.704 46.3252C165.142 45.9038 164.378 45.3295 163.701 44.1213C161.935 40.9813 162.501 36.8494 165.395 31.8374C165.961 30.8566 167.259 30.4986 168.292 31.0282C169.334 31.5652 169.714 32.7921 169.147 33.7691C167.014 37.461 166.432 40.3884 167.473 42.2306C167.73 42.693 167.944 42.8496 168.36 43.1666C168.922 43.5843 169.694 44.166 170.41 45.3929C173.371 50.472 170.276 57.5388 168.811 60.3394C168.471 61.0815 167.691 61.5477 166.852 61.5477Z" fill="#51DFCA"/>
</g>
<mask id="mask2_281_311" style="mask-type:luminance" maskUnits="userSpaceOnUse" x="175" y="30" width="11" height="33">
<path d="M175.307 30.0511H185.44V62.424H175.307V30.0511Z" fill="white"/>
</mask>
<g mask="url(#mask2_281_311)">
<path d="M179.669 61.5477C179.475 61.5477 179.277 61.529 179.087 61.4768C177.951 61.1748 177.29 60.0635 177.61 58.9895C177.642 58.8664 177.741 58.6613 177.793 58.5457C179.681 54.962 181.11 50.129 179.483 47.3433C179.182 46.8286 178.944 46.6459 178.517 46.3252C177.959 45.9038 177.187 45.3295 176.51 44.1213C174.745 40.9813 175.319 36.8494 178.212 31.8374C178.77 30.8566 180.069 30.4986 181.11 31.0282C182.143 31.5652 182.523 32.7921 181.965 33.7691C179.831 37.461 179.249 40.3884 180.282 42.2306C180.544 42.693 180.753 42.8496 181.169 43.1666C181.739 43.5843 182.511 44.166 183.223 45.3929C186.188 50.472 183.093 57.5388 181.62 60.3394C181.28 61.0815 180.5 61.5477 179.669 61.5477Z" fill="#51DFCA"/>
</g>
<mask id="mask3_281_311" style="mask-type:luminance" maskUnits="userSpaceOnUse" x="187" y="30" width="11" height="33">
<path d="M187.467 30.0511H197.6V62.424H187.467V30.0511Z" fill="white"/>
</mask>
<g mask="url(#mask3_281_311)">
<path d="M192.478 61.5477C192.284 61.5477 192.094 61.529 191.904 61.4768C190.76 61.1748 190.103 60.0635 190.42 58.9895C190.459 58.8664 190.55 58.6613 190.61 58.5457C192.49 54.962 193.919 50.129 192.292 47.3433C191.991 46.8286 191.758 46.6459 191.33 46.3252C190.768 45.9038 190.004 45.3295 189.327 44.1213C187.562 40.9813 188.128 36.8494 191.021 31.8374C191.587 30.8566 192.886 30.4986 193.919 31.0282C194.96 31.5652 195.336 32.7921 194.774 33.7691C192.64 37.461 192.059 40.3884 193.1 42.2306C193.357 42.693 193.563 42.8496 193.986 43.1666C194.548 43.5843 195.32 44.166 196.037 45.3929C198.997 50.472 195.902 57.5388 194.437 60.3394C194.097 61.0815 193.317 61.5477 192.478 61.5477Z" fill="#51DFCA"/>
</g>
<mask id="mask4_281_311" style="mask-type:luminance" maskUnits="userSpaceOnUse" x="151" y="70" width="78" height="59">
<path d="M151.188 70.4678H228.693V128.296H151.188V70.4678Z" fill="white"/>
</mask>
<g mask="url(#mask4_281_311)">
<path d="M211.13 101.368V83.2253C216.169 83.5013 220.155 87.4766 220.155 92.2872C220.155 97.1165 216.169 101.092 211.13 101.368ZM165.743 112.324C165.743 113.439 164.785 114.338 163.61 114.338C162.426 114.338 161.472 113.439 161.472 112.324V83.7362C161.472 82.6286 162.426 81.715 163.61 81.715C164.785 81.715 165.743 82.6286 165.743 83.7362V112.324ZM211.13 75.1256V74.9503C211.13 72.4779 209.004 70.4678 206.387 70.4678H156.473C153.841 70.4678 151.723 72.4779 151.723 74.9503V111.257C151.723 120.301 159.481 127.632 169.045 127.632H193.816C203.387 127.632 211.13 120.301 211.13 111.257V109.467C220.887 109.158 228.697 101.577 228.697 92.2872C228.697 83.0165 220.887 75.4351 211.13 75.1256Z" fill="#51DFCA"/>
</g>
<path d="M133.047 198.455H134.978V188.77H133.047V191.929H131.289V193.379H133.047V194.647H131.289V196.098H133.047V198.455ZM131.143 190.109H128.506V188.729H126.575V190.109H123.749V191.53H131.143V190.109ZM126.195 194.468C126.195 193.778 126.749 193.379 127.541 193.379C128.316 193.379 128.875 193.778 128.875 194.468C128.875 195.184 128.316 195.572 127.541 195.572C126.749 195.572 126.195 195.184 126.195 194.468ZM130.687 194.468C130.687 193.006 129.373 191.985 127.541 191.985C125.696 191.985 124.378 193.006 124.378 194.468C124.378 195.945 125.696 196.978 127.541 196.978C129.373 196.978 130.687 195.945 130.687 194.468ZM128.012 199.808V197.668H126.076V201.255H135.271V199.808H128.012Z" fill="#51DFCA"/>
<path d="M148.493 194.606C146.355 193.942 145.362 192.454 145.33 190.963H147.998V189.531H140.659V190.963H143.371C143.339 192.536 142.346 194.151 140.149 194.811L141.13 196.232C142.694 195.751 143.778 194.759 144.38 193.517C144.994 194.647 146.019 195.557 147.511 196.001L148.493 194.606ZM142.112 198.44H149.344V201.49H151.291V196.993H142.112V198.44ZM149.344 188.77V196.426H151.291V188.77H149.344Z" fill="#51DFCA"/>
<path d="M161.421 191.489H164.101V189.986H156.695V191.489H159.49V192.193C159.49 194.289 158.393 196.676 156.181 197.642L157.265 199.089C158.801 198.399 159.886 197.008 160.487 195.352C161.085 196.855 162.142 198.123 163.634 198.772L164.703 197.336C162.49 196.37 161.421 194.125 161.421 192.193V191.489ZM168.994 193.614H167.03V188.77H165.099V201.475H167.03V195.117H168.994V193.614Z" fill="#51DFCA"/>
<path d="M175.039 192.633C175.039 191.641 175.803 191.06 176.824 191.06C177.85 191.06 178.625 191.641 178.625 192.633C178.625 193.625 177.85 194.218 176.824 194.218C175.803 194.218 175.039 193.625 175.039 192.633ZM177.806 195.654C179.389 195.322 180.502 194.166 180.502 192.633C180.502 190.814 178.918 189.501 176.824 189.501C174.746 189.501 173.167 190.814 173.167 192.633C173.167 194.177 174.295 195.352 175.89 195.669V197.463C174.762 197.474 173.666 197.474 172.712 197.474L172.945 198.951C175.217 198.966 178.218 198.966 181.028 198.47L180.866 197.157C179.888 197.269 178.863 197.351 177.806 197.392V195.654ZM185.275 193.752H183.502V188.759H181.57V201.46H183.502V195.255H185.275V193.752Z" fill="#51DFCA"/>
<path d="M202.525 189.986V191.433H206.788C206.729 192.04 206.626 192.592 206.495 193.129L201.809 193.379L202.058 194.908L205.909 194.58C205.134 195.971 203.827 197.146 201.733 198.179L202.79 199.558C207.619 197.172 208.704 193.89 208.704 189.986H202.525ZM211.194 188.77V193.64H208.676V195.117H211.194V201.475H213.125V188.77H211.194Z" fill="#51DFCA"/>
<path d="M221.605 191.407H223.113V197.008C222.599 197.019 222.104 197.049 221.605 197.049V191.407ZM224.974 191.407H226.129V189.945H218.557V191.407H219.729V197.09C219.202 197.09 218.692 197.09 218.209 197.09L218.411 198.578C220.829 198.567 223.932 198.511 226.775 198.056L226.656 196.743C226.098 196.814 225.544 196.87 224.974 196.896V191.407ZM227.519 188.785V201.49H229.466V188.785H227.519Z" fill="#51DFCA"/>
<path d="M243.274 193.256H244.283V197.366H246.116V188.77H244.283V191.791H243.274V188.994H241.489V196.262H243.274V193.256ZM241.299 194.621C239.612 194.054 238.868 192.853 238.868 191.586H240.903V190.165H238.868V188.938H237.035V190.165H234.989V191.586H237.035C237.035 192.935 236.319 194.233 234.605 194.856L235.5 196.191C236.731 195.766 237.518 194.949 237.989 193.957C238.456 194.856 239.248 195.572 240.436 195.96L241.299 194.621ZM242.439 196.773H240.507V196.978C240.507 198.276 239.129 199.67 236.216 200.013L236.905 201.434C239.086 201.143 240.653 200.289 241.473 199.118C242.292 200.289 243.844 201.143 246.013 201.434L246.729 200.013C243.816 199.67 242.439 198.276 242.439 196.978V196.773Z" fill="#51DFCA"/>
</svg>
